<svg xmlns="http://www.w3.org/2000/svg" version="1.1">
    <path d="M10.83 8.31v.022l-4.08 2.539-.005.003-.048.03-.012-.005c-.073.051-.15.101-.246.101-.217 0-.376-.165-.413-.369l-.027-.011V5.461l.009-.005c0-.009-.009-.014-.009-.022 0-.24.197-.435.44-.435.096 0 .174.049.247.101l.031-.017 4.129 2.569v.016a.42.42 0 0 1 .153.317.418.418 0 0 1-.169.325zm3.493 2.604a.986.986 0 0 1-.948.742 1 1 0 0 1-1-1 .98.98 0 0 1 .094-.412l-.019-.01C12.79 9.559 13 8.807 13 8a5 5 0 1 0-5 5c.766 0 1.484-.186 2.133-.494l.013.03a.975.975 0 0 1 .417-.097 1 1 0 0 1 1 1 .987.987 0 0 1-.77.954A6.936 6.936 0 0 1 8 14.999a7 7 0 1 1 7-7c0 1.048-.261 2.024-.677 2.915z" fill="#999999"></path>
</svg>