<svg t="1676993841641" class="icon" viewBox="0 0 1024 1024" version="1.1" xmlns="http://www.w3.org/2000/svg" p-id="3045" width="16" height="16">
    <path d="M920.8 600.5V491c0-55.7-11-109.8-32.7-160.9-20.9-49.3-50.9-93.6-88.9-131.6-38.1-38.1-82.4-68-131.6-88.9-51.1-21.7-105.2-32.7-160.9-32.7s-109.8 11-160.9 32.7c-49.3 20.9-93.6 50.9-131.6 88.9-38.1 38.1-68 82.4-88.9 131.6-21.9 51.1-32.9 105.2-32.9 160.9v109.5c-21.7 33.2-33.2 73.2-33.2 115.6 0 42.6 11.6 82.7 33.4 116 17.8 27.2 41.7 47.9 68.5 59.8 9.6 32.2 39.5 55.7 74.7 55.7H265c43 0 78-35 78-78v-307c0-43-35-78-78-78h-29.2c-35.2 0-65.1 23.5-74.7 55.7-4.3 1.9-8.6 4.1-12.8 6.5V491c0-48.1 9.5-94.9 28.2-139 18.1-42.6 44-81 77-113.9 33-33 71.3-58.9 113.9-77 44.1-18.7 90.9-28.2 139-28.2 48.1 0 94.9 9.5 139 28.2 42.6 18.1 81 44 113.9 77 33 33 58.9 71.3 77 113.9 18.7 44.1 28.2 90.9 28.2 139v55.8c-4.2-2.4-8.4-4.6-12.8-6.5-9.6-32.2-39.5-55.7-74.7-55.7h-29.2c-43 0-78 35-78 78v307c0 43 35 78 78 78H777c35.2 0 65.1-23.5 74.7-55.7 26.8-12 50.7-32.7 68.5-59.8 21.9-33.3 33.4-73.4 33.4-116 0.4-42.4-11.1-82.3-32.8-115.6z" fill="#999999" p-id="3046"></path>
</svg>